<svg width="35" height="35" fill="none" xmlns="http://www.w3.org/2000/svg"><g clip-path="url(#clip0)"><rect width="35" height="35" rx="17.5" fill="#fff"/><path d="M17.5.364C7.835.364 0 8.23 0 17.934a17.564 17.564 0 0011.97 16.671c.874.162 1.193-.38 1.193-.847 0-.416-.015-1.521-.023-2.988-4.87 1.063-5.896-2.355-5.896-2.355-.795-2.03-1.942-2.569-1.942-2.569-1.59-1.09.12-1.07.12-1.07 1.755.124 2.68 1.812 2.68 1.812 1.562 2.685 4.097 1.909 5.094 1.459.157-1.135.61-1.91 1.11-2.349-3.885-.444-7.97-1.95-7.97-8.682 0-1.918.681-3.486 1.8-4.716-.18-.444-.78-2.23.171-4.648 0 0 1.47-.472 4.813 1.8a16.759 16.759 0 014.382-.592c1.485.008 2.983.202 4.382.593 3.34-2.273 4.807-1.801 4.807-1.801.954 2.418.354 4.204.173 4.648 1.122 1.23 1.8 2.798 1.8 4.716 0 6.749-4.092 8.233-7.99 8.67.628.542 1.188 1.613 1.188 3.253 0 2.35-.021 4.243-.021 4.82 0 .47.315 1.017 1.203.844A17.568 17.568 0 0035 17.935C35 8.23 27.164.365 17.5.365z" fill="#3E77BF"/><path d="M17.5.364C7.835.364 0 8.23 0 17.934a17.564 17.564 0 0011.97 16.671c.874.162 1.193-.38 1.193-.847 0-.416-.015-1.521-.023-2.988-4.87 1.063-5.896-2.355-5.896-2.355-.795-2.03-1.942-2.569-1.942-2.569-1.59-1.09.12-1.07.12-1.07 1.755.124 2.68 1.812 2.68 1.812 1.562 2.685 4.097 1.909 5.094 1.459.157-1.135.61-1.91 1.11-2.349-3.885-.444-7.97-1.95-7.97-8.682 0-1.918.681-3.486 1.8-4.716-.18-.444-.78-2.23.171-4.648 0 0 1.47-.472 4.813 1.8a16.759 16.759 0 014.382-.592c1.485.008 2.983.202 4.382.593 3.34-2.273 4.807-1.801 4.807-1.801.954 2.418.354 4.204.173 4.648 1.122 1.23 1.8 2.798 1.8 4.716 0 6.749-4.092 8.233-7.99 8.67.628.542 1.188 1.613 1.188 3.253 0 2.35-.021 4.243-.021 4.82 0 .47.315 1.017 1.203.844A17.568 17.568 0 0035 17.935C35 8.23 27.164.365 17.5.365z" fill="#3E77BF"/><path d="M26.709 7.7c.926 2.393.335 4.159.155 4.6 1.122 1.23 1.8 2.798 1.8 4.716 0 6.749-4.092 8.233-7.99 8.67.628.542 1.187 1.613 1.187 3.253 0 2.35-.02 4.243-.02 4.82 0 .47.315 1.017 1.202.844A17.568 17.568 0 0035 17.935c0-2.086-.363-4.085-1.028-5.942-2.413-2.54-5.098-4.232-7.263-4.292zM13.617 26.626c.197-.397.437-.705.689-.928-2.13-.244-4.316-.812-5.86-2.381 1.188 1.977 3.122 2.876 5.171 3.309z" fill="#114C82"/><path d="M.911 19.12c0-9.706 7.836-17.571 17.5-17.571 5.365 0 10.165 2.427 13.374 6.244C28.615 3.299 23.4.364 17.5.364 7.836.364 0 8.23 0 17.934c0 4.328 1.56 8.287 4.146 11.347A17.517 17.517 0 01.91 19.12z" fill="#6CA9EA"/><path d="M22.772 30.124c0-1.64-.56-2.713-1.188-3.255 3.899-.435 7.991-1.92 7.991-8.669 0-1.918-.677-3.486-1.8-4.715.181-.444.782-2.23-.174-4.648 0 0-.182-.056-.557-.035.41 1.824-.03 3.128-.18 3.498 1.122 1.23 1.8 2.798 1.8 4.716 0 6.749-4.092 8.233-7.99 8.67.628.542 1.187 1.613 1.187 3.253 0 2.35-.02 4.243-.02 4.82 0 .414.246.886.91.875.005-.794.021-2.48.021-4.51z" fill="#083E66"/><path d="M8.289 29.919c.367.756 1.602 2.568 4.86 2.187-.004-.399-.007-.845-.01-1.336-2.513.549-3.997-.098-4.85-.851z" fill="#114C82"/><path d="M8.917 27.618a4.322 4.322 0 00-.628-.744c.198.294.408.54.628.744z" fill="#6CA9EA"/></g><defs><clipPath id="clip0"><rect width="35" height="35" rx="17.5" fill="#fff"/></clipPath></defs></svg>