<svg height="512" viewBox="0 0 511.945 511.945" width="512" xmlns="http://www.w3.org/2000/svg"><linearGradient id="a" gradientUnits="userSpaceOnUse" x1="255.973" x2="255.973" y1="511.945" y2="0"><stop offset="0" stop-color="#5558ff"/><stop offset="1" stop-color="#00c0ff"/></linearGradient><linearGradient id="b" gradientUnits="userSpaceOnUse" x1="375.941" x2="375.941" y1="121" y2="91"><stop offset="0" stop-color="#addcff"/><stop offset=".503" stop-color="#eaf6ff"/><stop offset="1" stop-color="#eaf6ff"/></linearGradient><path d="M435.941 0h-120c-41.355 0-75 33.645-75 75v61c0 36.219 25.809 66.524 60 73.493V241a15.001 15.001 0 0024 12l56-42h55c41.466 0 76-33.542 76-75V75c0-41.466-34.541-75-76-75zm30.65 402.816L360.525 326.75a14.998 14.998 0 00-16.69-.531l-59.759 37.342c-3.214.616-17.185-1.999-44.198-21.554-22.712-16.44-47.051-39.459-65.106-61.574-26.753-32.769-28.747-49.291-27.279-52.995l37.52-60.042a15 15 0 00-.531-16.691L108.414 44.64a15 15 0 00-22.796-1.865L30.889 97.5c-31.002 31-39.632 78.204-21.475 117.463 24.279 52.493 55.799 101 93.685 144.174 54.159 61.718 119.625 110.187 194.582 144.061 38.376 17.344 84.806 8.384 115.519-22.33l55.256-55.255a15.003 15.003 0 00-1.865-22.797z" fill="url(#a)"/><path d="M315.941 91c-8.284 0-15 6.716-15 15s6.716 15 15 15 15-6.716 15-15-6.715-15-15-15zm60 0c-8.284 0-15 6.716-15 15s6.716 15 15 15 15-6.716 15-15-6.715-15-15-15zm60 0c-8.284 0-15 6.716-15 15s6.716 15 15 15 15-6.716 15-15-6.715-15-15-15z" fill="url(#b)"/></svg>