<svg width="35" height="35" fill="none" xmlns="http://www.w3.org/2000/svg"><path d="M17.5 35C27.165 35 35 27.165 35 17.5S27.165 0 17.5 0 0 7.835 0 17.5 7.835 35 17.5 35z" fill="#4D76A1"/><path fill-rule="evenodd" clip-rule="evenodd" d="M16.839 25.175h1.373s.415-.045.627-.274c.195-.21.189-.603.189-.603s-.027-1.843.828-2.114c.844-.268 1.926 1.78 3.074 2.569.868.596 1.527.465 1.527.465l3.07-.043s1.604-.099.843-1.36c-.062-.104-.443-.934-2.281-2.64-1.924-1.787-1.667-1.498.651-4.587 1.412-1.882 1.976-3.03 1.8-3.522-.168-.469-1.207-.345-1.207-.345l-3.455.022s-.256-.035-.446.078c-.186.112-.305.371-.305.371s-.547 1.456-1.276 2.694c-1.539 2.613-2.154 2.75-2.405 2.588-.585-.378-.44-1.518-.44-2.329 0-2.532.385-3.587-.747-3.86-.376-.091-.652-.151-1.613-.16-1.232-.014-2.276.003-2.867.292-.393.193-.696.622-.511.646.228.03.745.14 1.02.513.353.482.341 1.564.341 1.564s.203 2.98-.475 3.35c-.466.254-1.105-.264-2.476-2.634-.703-1.214-1.234-2.556-1.234-2.556s-.102-.251-.285-.385c-.221-.163-.53-.215-.53-.215l-3.284.022s-.493.014-.674.228c-.16.19-.013.585-.013.585s2.57 6.014 5.481 9.044c2.67 2.779 5.7 2.596 5.7 2.596z" fill="#fff"/></svg>