<svg width="350" height="1050" fill="none" xmlns="http://www.w3.org/2000/svg"><g clip-path="url(#prefix__clip0)"><path fill="#000" d="M0 0h347v1049H0z"/><circle cx="507" cy="495" r="478.5" stroke="#D60" stroke-width="3"/><circle cx="449" cy="492" r="478.5" stroke="#D60" stroke-width="3"/><circle cx="541" cy="486" r="478.5" stroke="#D60" stroke-width="3"/><circle cx="522" cy="492" r="478.5" stroke="#D60" stroke-width="3"/><circle cx="617" cy="486" r="478.5" stroke="#D60" stroke-width="3"/><circle cx="559" cy="483" r="478.5" stroke="#D60" stroke-width="3"/><circle cx="651" cy="477" r="478.5" stroke="#D60" stroke-width="3"/><circle cx="632" cy="483" r="478.5" stroke="#D60" stroke-width="3"/><circle cx="690" cy="477" r="478.5" stroke="#D60" stroke-width="3"/><circle cx="632" cy="474" r="478.5" stroke="#D60" stroke-width="3"/><circle cx="724" cy="468" r="478.5" stroke="#D60" stroke-width="3"/><circle cx="705" cy="474" r="478.5" stroke="#D60" stroke-width="3"/><circle cx="800" cy="468" r="478.5" stroke="#D60" stroke-width="3"/><circle cx="742" cy="465" r="478.5" stroke="#D60" stroke-width="3"/><circle cx="382" cy="35" r="478.5" stroke="#D60" stroke-width="3"/><circle cx="324" cy="32" r="478.5" stroke="#D60" stroke-width="3"/><circle cx="416" cy="26" r="478.5" stroke="#D60" stroke-width="3"/><circle cx="397" cy="32" r="478.5" stroke="#D60" stroke-width="3"/><circle cx="492" cy="26" r="478.5" stroke="#D60" stroke-width="3"/><circle cx="434" cy="23" r="478.5" stroke="#D60" stroke-width="3"/><circle cx="526" cy="17" r="478.5" stroke="#D60" stroke-width="3"/><circle cx="507" cy="23" r="478.5" stroke="#D60" stroke-width="3"/><circle cx="565" cy="17" r="478.5" stroke="#D60" stroke-width="3"/><circle cx="507" cy="14" r="478.5" stroke="#D60" stroke-width="3"/><circle cx="599" cy="8" r="478.5" stroke="#D60" stroke-width="3"/><circle cx="580" cy="14" r="478.5" stroke="#D60" stroke-width="3"/><circle cx="617" cy="5" r="478.5" stroke="#D60" stroke-width="3"/><circle cx="815" cy="465" r="478.5" stroke="#D60" stroke-width="3"/><circle cx="-368" cy="937" r="478.5" stroke="#D60" stroke-width="3"/><circle cx="-426" cy="934" r="478.5" stroke="#D60" stroke-width="3"/><circle cx="-334" cy="928" r="478.5" stroke="#D60" stroke-width="3"/><circle cx="-353" cy="934" r="478.5" stroke="#D60" stroke-width="3"/><circle cx="-258" cy="928" r="478.5" stroke="#D60" stroke-width="3"/><circle cx="-316" cy="925" r="478.5" stroke="#D60" stroke-width="3"/><circle cx="-224" cy="919" r="478.5" stroke="#D60" stroke-width="3"/><circle cx="-243" cy="925" r="478.5" stroke="#D60" stroke-width="3"/><circle cx="-185" cy="919" r="478.5" stroke="#D60" stroke-width="3"/><circle cx="-243" cy="916" r="478.5" stroke="#D60" stroke-width="3"/><circle cx="-151" cy="910" r="478.5" stroke="#D60" stroke-width="3"/><circle cx="-170" cy="916" r="478.5" stroke="#D60" stroke-width="3"/><circle cx="-133" cy="907" r="478.5" stroke="#D60" stroke-width="3"/><circle cx="-446" cy="934" r="478.5" stroke="#D60" stroke-width="3"/><circle cx="-465" cy="940" r="478.5" stroke="#D60" stroke-width="3"/><circle cx="700" cy="-6" r="478.5" stroke="#D60" stroke-width="3"/><circle cx="642" cy="-9" r="478.5" stroke="#D60" stroke-width="3"/><circle cx="734" cy="-15" r="478.5" stroke="#D60" stroke-width="3"/><circle cx="715" cy="-9" r="478.5" stroke="#D60" stroke-width="3"/><circle cx="810" cy="-15" r="478.5" stroke="#D60" stroke-width="3"/><circle cx="752" cy="-18" r="478.5" stroke="#D60" stroke-width="3"/><circle cx="825" cy="-18" r="478.5" stroke="#D60" stroke-width="3"/><circle cx="825" cy="-27" r="478.5" stroke="#D60" stroke-width="3"/><circle cx="575" cy="-466" r="478.5" stroke="#D60" stroke-width="3"/><circle cx="517" cy="-469" r="478.5" stroke="#D60" stroke-width="3"/><circle cx="609" cy="-475" r="478.5" stroke="#D60" stroke-width="3"/><circle cx="590" cy="-469" r="478.5" stroke="#D60" stroke-width="3"/><circle cx="685" cy="-475" r="478.5" stroke="#D60" stroke-width="3"/><circle cx="627" cy="-478" r="478.5" stroke="#D60" stroke-width="3"/><circle cx="700" cy="-478" r="478.5" stroke="#D60" stroke-width="3"/></g><defs><clipPath id="prefix__clip0"><path fill="#fff" d="M0 0h347v1049H0z"/></clipPath></defs></svg>