<svg xmlns="http://www.w3.org/2000/svg" viewBox="0 0 2000 1500"><defs><use id="prefix__b" href="#prefix__a" stroke-dasharray="100 100 100 9999"/><use id="prefix__c" href="#prefix__a" stroke-dasharray="250 250 250 250 250 9999"/><use id="prefix__e" href="#prefix__a" stroke-dasharray="1000 500 1000 500 9999"/><use id="prefix__f" href="#prefix__a" stroke-dasharray="1500 9999"/><use id="prefix__g" href="#prefix__a" stroke-dasharray="2000 500 500 9999"/><use id="prefix__h" href="#prefix__a" stroke-dasharray="800 800 800 800 800 9999"/><use id="prefix__j" href="#prefix__a" stroke-dasharray="1200 1200 1200 1200 1200 9999"/><circle stroke="#D60" vector-effect="non-scaling-stroke" id="prefix__a" fill="none" stroke-width="5" r="315"/></defs><g transform="translate(1000 750)"><circle fill="#D60" r="10"/><g transform="rotate(-69 0 0)"><use href="#prefix__b" transform="rotate(50) scale(.1)"/><use href="#prefix__b" transform="rotate(100) scale(.2)"/><use href="#prefix__b" transform="rotate(150) scale(.3)"/></g><g transform="rotate(-20.4 0 0)"><use href="#prefix__c" transform="rotate(-160) scale(.4)"/><use href="#prefix__d" transform="rotate(-110) scale(.5)"/></g><g transform="rotate(31.05 0 0)" id="prefix__d"><use href="#prefix__c"/><use href="#prefix__c" transform="rotate(90) scale(1.2)"/><use href="#prefix__c" transform="rotate(60) scale(1.4)"/><use href="#prefix__e" transform="rotate(120) scale(1.6)"/><use href="#prefix__e" transform="rotate(30) scale(1.8)"/></g><g transform="rotate(91.8 0 0)" id="prefix__i"><use href="#prefix__e" transform="rotate(20) scale(1.1)"/><use href="#prefix__f" transform="rotate(-40) scale(1.3)"/><use href="#prefix__f" transform="rotate(60) scale(1.5)"/><use href="#prefix__g" transform="rotate(-80) scale(1.7)"/><use href="#prefix__h" transform="rotate(100) scale(1.9)"/></g><g transform="rotate(-31.05 0 0)"><g transform="rotate(-122.4 0 0)"><use href="#prefix__g" transform="rotate(60) scale(2)"/><use href="#prefix__h" transform="rotate(120) scale(2.1)"/><use href="#prefix__h" transform="rotate(180) scale(2.3)"/><use href="#prefix__g" transform="rotate(-120) scale(2.4)"/><use href="#prefix__h" transform="rotate(-60) scale(2.5)"/></g><use href="#prefix__i" transform="rotate(180) scale(2)"/><use href="#prefix__h" transform="scale(2.7)"/><use href="#prefix__h" transform="rotate(45) scale(2.8)"/><use href="#prefix__h" transform="rotate(90) scale(2.9)"/><use href="#prefix__j" transform="rotate(135) scale(3.1)"/><use href="#prefix__j" transform="rotate(180) scale(3.2)"/></g><use href="#prefix__j" transform="rotate(-135) scale(3.3)"/><use href="#prefix__j" transform="rotate(-90) scale(3.5)"/><use href="#prefix__j" transform="rotate(-45) scale(3.6)"/><use href="#prefix__j" transform="scale(3.7)"/><use href="#prefix__j" transform="rotate(75) scale(3.9)"/></g></svg>