<svg width="347" height="1049" fill="none" xmlns="http://www.w3.org/2000/svg"><g clip-path="url(#prefix__clip0)"><path fill="#000" d="M0 0h347v1049H0z"/><path stroke="#D60" stroke-width="5" d="M-251.5 30.5h408v363h-408z"/><path stroke="#D60" stroke-width="5" d="M79.5 140.5h408v363h-408z"/><path stroke="#D60" stroke-width="5" d="M79.5 140.5h408v363h-408zM79.5 701.5h408v363h-408z"/><path stroke="#D60" stroke-width="5" d="M230.5 867.5h408v363h-408zM214.5-282.5h408v363h-408zM-220.5 568.5h408v363h-408zM229.5 277.5h408v363h-408z"/><path stroke="#D60" stroke-width="5" d="M229.5 277.5h408v363h-408z"/><path stroke="#D60" stroke-width="5" d="M229.5 277.5h408v363h-408z"/><path stroke="#D60" stroke-width="5" d="M229.5 277.5h408v363h-408zM214.5-282.5h408v363h-408z"/></g><defs><clipPath id="prefix__clip0"><path fill="#fff" d="M0 0h347v1049H0z"/></clipPath></defs></svg>